<svg height='300px' width='300px' fill="#035891" xmlns="http://www.w3.org/2000/svg" xmlns:xlink="http://www.w3.org/1999/xlink" version="1.1" x="0px" y="0px" viewBox="0 0 100 100" enable-background="new 0 0 100 100" xml:space="preserve"><path d="M86,41H14c-2.209,0-4,1.291-4,3.5V56c0,2.209,1.791,4,4,4h72c2.209,0,4-1.791,4-4V44.5C90,42.291,88.209,41,86,41z M86,12  H14c-2.209,0-4,1.291-4,3.5V27c0,2.209,1.791,4,4,4h72c2.209,0,4-1.791,4-4V15.5C90,13.291,88.209,12,86,12z M86,70H14  c-2.209,0-4,1.291-4,3.5V85c0,2.209,1.791,4,4,4h72c2.209,0,4-1.791,4-4V73.5C90,71.291,88.209,70,86,70z"></path></svg>
